<svg version="1.2" xmlns="http://www.w3.org/2000/svg" viewBox="0 0 800 800" width="800" height="800">
	<title>image</title>
	<style>
		.s0 { fill: #ff69b4 } 
	</style>
	<path id="Shape 1" class="s0" d="m95.8 131.1l-40.8 77.9 267.1 586.2h77.9z"/>
	<path id="Shape 2" class="s0" d="m140.3 5l352.4 790.2 77.9-3.7-315.3-708.6 263.4-3.7 44.5 14.8 26 14.9 14.8 7.4 14.9 11.1 7.4 14.9 14.8 18.5 11.2 18.6 7.4 18.5v11.1l3.7 7.5 3.7 11.1v14.8 11.1 14.9 11.1l-3.7 14.9-3.7 14.8-3.7 14.8-7.5 11.2-11.1 18.5-14.8 18.6-14.9 18.5-14.8 7.4-18.5 14.9-14.9 7.4-26 7.4-14.8 3.7-14.8 3.7-11.2 3.7 29.7 66.8 52-11.1 22.2-11.2 18.6-11.1 18.5-7.4 14.8-14.8 14.9-11.2 18.5-18.5 14.9-22.3 11.1-11.1 7.4-14.8 7.4-22.3 7.5-14.8 7.4-22.3 3.7-18.5v-18.6l3.7-18.5-3.7-18.6v-18.5l-3.7-26-7.4-22.3-22.3-40.8-18.5-33.4-29.7-25.9-14.9-18.6-14.8-7.4-26-14.8-14.8-7.5-18.6-7.4-18.5-7.4-18.6-3.7h-14.8z"/>
</svg>